<svg width="24" height="24" viewBox="0 0 24 24" fill="none" xmlns="http://www.w3.org/2000/svg">
<g clip-path="url(#clip0_162_2684)">
<path d="M8 6.14239L8 4.4709C8 3.30611 8 2.72371 8.34942 2.36186C8.69883 2 9.26121 2 10.386 2L13.614 2C14.7388 2 15.3012 2 15.6506 2.36186C16 2.72371 16 3.30611 16 4.4709V6.14239" stroke="#FF5659" stroke-width="2"/>
<path d="M14 11.2153V16.2153" stroke="#FF5659" stroke-width="2" stroke-linecap="round"/>
<path d="M10 11.2153V16.2153" stroke="#FF5659" stroke-width="2" stroke-linecap="round"/>
<path d="M12 21C10.6442 21 9.70218 20.999 8.97266 20.9248C8.26177 20.8525 7.85572 20.7182 7.54492 20.5166C7.28461 20.3477 7.05193 20.1396 6.85547 19.8994C6.62098 19.6127 6.44287 19.2239 6.29297 18.5254C6.13912 17.8083 6.03462 16.8714 5.88574 15.5234L4.88184 6.43066L19.1182 6.43066L18.1143 15.5234C17.9654 16.8714 17.8609 17.8083 17.707 18.5254C17.5571 19.2238 17.38 19.6127 17.1455 19.8994C16.949 20.1397 16.7155 20.3476 16.4551 20.5166C16.1444 20.7181 15.7389 20.8525 15.0283 20.9248C14.2987 20.999 13.3561 21 12 21Z" stroke="#FF5659" stroke-width="2"/>
<path d="M3 6.12207H21" stroke="#FF5659" stroke-width="2" stroke-linecap="round"/>
</g>
<defs>
<clipPath id="clip0_162_2684">
<rect width="24" height="24" fill="white"/>
</clipPath>
</defs>
</svg>
