<svg width="24" height="24" viewBox="0 0 24 24" fill="none" xmlns="http://www.w3.org/2000/svg">
<path fill-rule="evenodd" clip-rule="evenodd" d="M13.3369 3.62908C14.5075 2.45662 16.4063 2.4559 17.5779 3.62748L20.0697 6.11933C21.2313 7.28091 21.2434 9.16138 20.0968 10.3378L10.8637 19.811C10.1111 20.5832 9.07893 21.0186 8.00114 21.0185L5.24899 21.0184C3.82761 21.0183 2.69248 19.8335 2.75226 18.4123L2.87041 15.6032C2.91254 14.6016 3.32884 13.6523 4.03693 12.9431L13.3369 3.62908ZM16.1648 5.04276C15.7742 4.65224 15.1413 4.65248 14.7511 5.0433L13.2646 6.53199L17.1887 10.4561L18.6656 8.94076C19.0478 8.54863 19.0438 7.92181 18.6566 7.53461L16.1648 5.04276ZM5.45115 14.3573L11.8515 7.94727L15.7927 11.8884L9.43249 18.414C9.05621 18.8001 8.54012 19.0178 8.00122 19.0178L5.24908 19.0176C4.9648 19.0176 4.73778 18.7807 4.74973 18.4964L4.86789 15.6874C4.88895 15.1866 5.0971 14.7119 5.45115 14.3573ZM20.5147 20.9452C21.0668 20.9452 21.5143 20.4973 21.5143 19.9448C21.5143 19.3923 21.0668 18.9445 20.5147 18.9445H14.393C13.8409 18.9445 13.3934 19.3923 13.3934 19.9448C13.3934 20.4973 13.8409 20.9452 14.393 20.9452H20.5147Z" fill="#5669FF"/>
</svg>
