<svg width="24" height="24" viewBox="0 0 24 24" fill="none" xmlns="http://www.w3.org/2000/svg">
<path fill-rule="evenodd" clip-rule="evenodd" d="M4.8 2.7428H19.2C21.851 2.7428 24 4.96858 24 7.71423V17.6571C24 20.4027 21.851 22.6285 19.2 22.6285H4.8C2.14903 22.6285 0 20.4027 0 17.6571V7.71423C0 4.96858 2.14903 2.7428 4.8 2.7428ZM5.52 5.91208C5.22177 5.50024 4.65764 5.41677 4.26 5.72565C3.86235 6.03454 3.78177 6.61881 4.08 7.03065L7.44 11.6707C9.72 14.8192 14.28 14.8192 16.56 11.6707L19.92 7.03065C20.2182 6.61881 20.1376 6.03454 19.74 5.72565C19.3424 5.41677 18.7782 5.50024 18.48 5.91208L15.12 10.5521C13.56 12.7064 10.44 12.7064 8.88 10.5521L5.52 5.91208Z" fill="#7B7B7B"/>
</svg>
