<svg width="40" height="24" viewBox="0 0 40 24" fill="none" xmlns="http://www.w3.org/2000/svg">
<path d="M13 9.92285C13 14.7747 17.2445 18.7869 19.1232 20.3252C19.3921 20.5454 19.5281 20.6568 19.7287 20.7132C19.8849 20.7572 20.1148 20.7572 20.271 20.7132C20.472 20.6567 20.6071 20.5463 20.877 20.3254C22.7557 18.7871 26.9999 14.7751 26.9999 9.9233C26.9999 8.08718 26.2625 6.32605 24.9497 5.02772C23.637 3.72939 21.8566 3 20.0001 3C18.1436 3 16.363 3.7295 15.0503 5.02783C13.7375 6.32616 13 8.08674 13 9.92285Z" fill="#F2FEFF"/>
<path d="M18 9C18 10.1046 18.8954 11 20 11C21.1046 11 22 10.1046 22 9C22 7.89543 21.1046 7 20 7C18.8954 7 18 7.89543 18 9Z" fill="#F2FEFF"/>
<path d="M13 9.92285C13 14.7747 17.2445 18.7869 19.1232 20.3252C19.3921 20.5454 19.5281 20.6568 19.7287 20.7132C19.8849 20.7572 20.1148 20.7572 20.271 20.7132C20.472 20.6567 20.6071 20.5463 20.877 20.3254C22.7557 18.7871 26.9999 14.7751 26.9999 9.9233C26.9999 8.08718 26.2625 6.32605 24.9497 5.02772C23.637 3.72939 21.8566 3 20.0001 3C18.1436 3 16.363 3.7295 15.0503 5.02783C13.7375 6.32616 13 8.08674 13 9.92285Z" stroke="#F2FEFF" stroke-width="2" stroke-linecap="round" stroke-linejoin="round"/>
<path d="M18 9C18 10.1046 18.8954 11 20 11C21.1046 11 22 10.1046 22 9C22 7.89543 21.1046 7 20 7C18.8954 7 18 7.89543 18 9Z" stroke="#F2FEFF" stroke-width="2" stroke-linecap="round" stroke-linejoin="round"/>
<circle cx="20" cy="9.5" r="3" fill="#5669FF"/>
</svg>
