<svg width="24" height="24" viewBox="0 0 24 24" fill="none" xmlns="http://www.w3.org/2000/svg">
<g clip-path="url(#clip0_162_2366)">
<g clip-path="url(#clip1_162_2366)">
<path fill-rule="evenodd" clip-rule="evenodd" d="M5.95833 7.80723V5.49398C5.95833 2.45974 8.43942 0 11.5 0C14.5606 0 17.0417 2.45974 17.0417 5.49398V7.80723H17.3333C19.9107 7.80723 22 9.87859 22 12.4337V19.3735C22 21.9286 19.9107 24 17.3333 24H5.66667C3.08934 24 1 21.9286 1 19.3735V12.4337C1 9.87859 3.08934 7.80723 5.66667 7.80723H5.95833ZM7.70833 5.49398C7.70833 3.41792 9.40592 1.73494 11.5 1.73494C13.5941 1.73494 15.2917 3.41792 15.2917 5.49398V7.80723H7.70833V5.49398ZM12.6667 14.747C12.6667 15.0403 12.5565 15.3082 12.375 15.512V19.3735C12.375 19.8526 11.9832 20.241 11.5 20.241C11.0168 20.241 10.625 19.8526 10.625 19.3735V15.512C10.4435 15.3082 10.3333 15.0403 10.3333 14.747C10.3333 14.1082 10.8557 13.5904 11.5 13.5904C12.1443 13.5904 12.6667 14.1082 12.6667 14.747Z" fill="#7B7B7B"/>
</g>
</g>
<defs>
<clipPath id="clip0_162_2366">
<rect width="24" height="24" fill="white"/>
</clipPath>
<clipPath id="clip1_162_2366">
<rect width="24" height="24" fill="white"/>
</clipPath>
</defs>
</svg>
